# xmcd
#
# Track frame offsets: 
#        150
#        12645
#        26442
#        42507
#        57787
#        75945
#        93855
#        109220
#        128547
#        141872
#        156042
#        171115
#        184625
#
# Disc length: 3013 seconds
#
# Revision: 0
# Processed by: cddbd v1.5.2PL0 Copyright (c) Steve Scherf et al.
# Submitted via: ExactAudioCopy v0.99pb3
#
DISCID=9a0bc30d
DTITLE=Toby Keith - Pull My Chain
DYEAR=2001
DGENRE=Country
TTITLE0=I'm Just Talkin' About Tonight
TTITLE1=I Wanna Talk About Me
TTITLE2=I Can't Take You Anywhere
TTITLE3=You Leave Me Weak
TTITLE4=Tryin' to Matter
TTITLE5=Pull My Chain
TTITLE6=The Sha la la Song
TTITLE7=Pick 'Em Up and Lay 'Em Down
TTITLE8=Forever Hasn't Got Here Yet
TTITLE9=Yesterday's Rain
TTITLE10=My List
TTITLE11=You Didn't Have As Much to Lose
TTITLE12=Gimme Eight Seconds
EXTD=
EXTT0=
EXTT1=
EXTT2=
EXTT3=
EXTT4=
EXTT5=
EXTT6=
EXTT7=
EXTT8=
EXTT9=
EXTT10=
EXTT11=
EXTT12=
PLAYORDER=
